# xmcd
#
# Track frame offsets: 
#        150
#        21563
#        39900
#        59651
#        78573
#        97577
#        119391
#        144756
#        163215
#        182942
#        198719
#        215819
#
# Disc length: 3122 seconds
#
# Revision: 0
# Processed by: cddbd v1.5.2PL0 Copyright (c) Steve Scherf et al.
# Submitted via: ExactAudioCopy v0.99pb5
#
DISCID=af0c300c
DTITLE=Diesel - Diesel - The Essential
DYEAR=2008
DGENRE=Blues
TTITLE0=Cry In Shame
TTITLE1=Parisienne Hotel
TTITLE2=Come to Me
TTITLE3=Tip of My Tongue
TTITLE4=Don't Need Love
TTITLE5=Man Alive
TTITLE6=Since I Fell For You
TTITLE7=One More Time
TTITLE8=Please Send Me Someone to Love
TTITLE9=Lookin' For Love
TTITLE10=Love Junk
TTITLE11=Soul Revival
EXTD=
EXTT0=
EXTT1=
EXTT2=
EXTT3=
EXTT4=
EXTT5=
EXTT6=
EXTT7=
EXTT8=
EXTT9=
EXTT10=
EXTT11=
PLAYORDER=
